<?xml version="1.0" encoding="utf-8"?>
<!-- Generator: Adobe Illustrator 22.0.1, SVG Export Plug-In . SVG Version: 6.00 Build 0)  -->
<svg version="1.1" id="Layer_1" xmlns="http://www.w3.org/2000/svg" xmlns:xlink="http://www.w3.org/1999/xlink" x="0px" y="0px"
	 viewBox="0 0 144.9 141.7" style="enable-background:new 0 0 144.9 141.7;" xml:space="preserve">
<style type="text/css">
	.st0{fill-rule:evenodd;clip-rule:evenodd;fill:#FFFFFF;}
	.st1{fill:#FFFFFF;}
</style>
<path class="st0" d="M63.6,55.9c3.7-3.6,7.3-7.3,10.9-10.9c7.4-7.4,6.4-6.1,12.9,1l3.2,3.2c1.9-5.7,0.5-12.2-4-16.8
	c-6.4-6.4-16.9-6.4-23.3,0c-4.5,4.5-5.8,10.9-4.1,16.6l2-2c5.2-5.5,3.9-5.8,9.6-0.1L63.6,55.9z M54,58.1c-0.2,1.6,0,2.8,0.6,3.7
	c0.9,1.4,2.9,2.2,5.5,2.5c3,0.4,6.8,0.1,10.9-0.9c11.5-2.6,25.4-10,33.7-20.8c-1.7,3.2-3.9,6.4-6.5,9.3c-1.2,3.4-3.1,6.6-5.8,9.3
	c-17.6,17.6-15.5,20.3-27,8.1c-2,0.1-4,0.1-5.9-0.2C49.9,68,47.5,59.9,54,58.1z M107.1,39l-0.2,2.9l-0.2,2.9l-1.4-3.1l-3.4-0.1
	l2.6-1.3L107.1,39z M57.6,26.4L57.6,26.4C48,36,48,51.7,57.6,61.3c0.5,0.5,1,1,1.5,1.5c0.3,0,0.6,0.1,0.9,0.1
	c3,0.4,6.8,0.1,10.9-0.9c9.3-2.1,20.3-7.4,28.5-15.1c0.9-7.3-1.4-14.9-7-20.5C82.9,16.9,67.2,16.9,57.6,26.4z"/>
<path class="st0" d="M129.1,91.5l4.7-4.9h-2.5l-5.4,5.7v-5.7h-2V98h2v-3.3l1.8-1.8l3.9,5.1h2.4L129.1,91.5z M117.3,93.5h-3.9l2-4.6
	L117.3,93.5z M116.2,86.5h-1.9l-5,11.5h2.1l1.2-2.8h5.4l1.2,2.8h2.1L116.2,86.5z M107.1,86.6h-8.5V98h8.5v-1.8h-6.5v-3.1h5.7v-1.8
	h-5.7v-2.9h6.5V86.6z M93.8,90.5c0,0.6-0.2,1.1-0.7,1.5c-0.4,0.4-1,0.6-1.8,0.6H89v-4.1h2.3c0.8,0,1.4,0.2,1.8,0.5
	C93.6,89.3,93.8,89.8,93.8,90.5z M95.9,90.4c0-0.6-0.1-1.1-0.3-1.6c-0.2-0.5-0.5-0.9-0.9-1.2c-0.4-0.3-0.8-0.6-1.4-0.8
	c-0.5-0.2-1.1-0.3-1.8-0.3H87V98h2v-3.7h2.3c0.6,0,1.2-0.1,1.8-0.3c0.6-0.2,1-0.4,1.5-0.7c0.4-0.3,0.7-0.7,1-1.2
	C95.7,91.7,95.9,91.1,95.9,90.4z M76.3,98H84v-1.2h-6.4V86.6h-1.3V98z M72.9,86.6h-8.3V98H73v-1.2h-7v-4h6.2v-1.2h-6.2v-3.9h7V86.6z
	 M56.2,96.5l-4.1-9.8h-1.4l4.9,11.5h1.1l4.9-11.5h-1.4L56.2,96.5z M47.1,93.9h-5.2l2.6-5.8L47.1,93.9z M45.1,86.5h-1.2L38.7,98H40
	l1.4-3h6.2l1.3,3h1.4L45.1,86.5z M34.9,90.1c0,0.4-0.1,0.7-0.2,1c-0.1,0.3-0.4,0.5-0.6,0.7c-0.3,0.2-0.6,0.4-0.9,0.5
	c-0.4,0.1-0.8,0.2-1.2,0.2h-3.5v-4.6h3.5c0.9,0,1.6,0.2,2.2,0.6C34.6,88.8,34.9,89.4,34.9,90.1z M36.6,98l-3.5-4.7
	c0.4-0.1,0.9-0.2,1.2-0.4c0.4-0.2,0.7-0.4,1-0.7c0.3-0.3,0.5-0.6,0.6-1c0.2-0.4,0.2-0.8,0.2-1.3c0-0.5-0.1-1-0.3-1.4
	c-0.2-0.4-0.5-0.8-0.8-1.1c-0.4-0.3-0.8-0.5-1.3-0.7c-0.5-0.2-1.1-0.2-1.7-0.2h-4.9V98h1.3v-4.4h3.3L35,98H36.6z M20.1,87.8h3.8
	v-1.2h-9v1.2h3.8V98h1.3V87.8z"/>
<g>
	<path class="st1" d="M45.6,110.9l-2.3-6.9h1l1.1,3.4c0.3,0.9,0.6,1.8,0.7,2.6h0c0.2-0.8,0.5-1.7,0.8-2.6l1.2-3.4h1l-2.5,6.9H45.6z"
		/>
	<path class="st1" d="M53.2,109.7c0,0.4,0,0.8,0.1,1.2h-0.8l-0.1-0.6h0c-0.3,0.4-0.8,0.7-1.5,0.7c-1,0-1.5-0.7-1.5-1.4
		c0-1.2,1.1-1.9,3-1.8v-0.1c0-0.4-0.1-1.1-1.1-1.1c-0.5,0-1,0.1-1.3,0.4l-0.2-0.6c0.4-0.3,1-0.4,1.6-0.4c1.5,0,1.9,1,1.9,2V109.7z
		 M52.4,108.4c-1,0-2.1,0.1-2.1,1.1c0,0.6,0.4,0.9,0.9,0.9c0.7,0,1.1-0.4,1.2-0.8c0-0.1,0-0.2,0-0.3V108.4z"/>
	<path class="st1" d="M58.2,110.7c-0.2,0.1-0.8,0.3-1.4,0.3c-1.5,0-2.5-1-2.5-2.5c0-1.5,1-2.6,2.7-2.6c0.5,0,1,0.1,1.2,0.3l-0.2,0.7
		c-0.2-0.1-0.6-0.2-1-0.2c-1.1,0-1.8,0.8-1.8,1.9c0,1.1,0.7,1.9,1.7,1.9c0.5,0,0.8-0.1,1.1-0.2L58.2,110.7z"/>
	<path class="st1" d="M62.8,109.7c0,0.4,0,0.8,0.1,1.2H62l-0.1-0.6h0c-0.3,0.4-0.8,0.7-1.5,0.7c-1,0-1.5-0.7-1.5-1.4
		c0-1.2,1.1-1.9,3-1.8v-0.1c0-0.4-0.1-1.1-1.1-1.1c-0.5,0-1,0.1-1.3,0.4l-0.2-0.6c0.4-0.3,1-0.4,1.6-0.4c1.5,0,1.9,1,1.9,2V109.7z
		 M61.9,108.4c-1,0-2.1,0.1-2.1,1.1c0,0.6,0.4,0.9,0.9,0.9c0.7,0,1.1-0.4,1.2-0.8c0-0.1,0-0.2,0-0.3V108.4z"/>
	<path class="st1" d="M65.3,104.5v1.4h1.3v0.7h-1.3v2.7c0,0.6,0.2,1,0.7,1c0.2,0,0.4,0,0.5-0.1l0,0.7c-0.2,0.1-0.5,0.1-0.8,0.1
		c-0.4,0-0.8-0.1-1-0.4c-0.2-0.3-0.3-0.7-0.3-1.3v-2.7h-0.8V106h0.8v-1.2L65.3,104.5z"/>
	<path class="st1" d="M68.6,104.6c0,0.3-0.2,0.6-0.6,0.6c-0.3,0-0.6-0.2-0.5-0.6c0-0.3,0.2-0.6,0.6-0.6
		C68.4,104,68.6,104.2,68.6,104.6z M67.6,110.9V106h0.9v4.9H67.6z"/>
	<path class="st1" d="M74.5,108.4c0,1.8-1.3,2.6-2.5,2.6c-1.3,0-2.4-1-2.4-2.6c0-1.7,1.1-2.6,2.5-2.6
		C73.5,105.8,74.5,106.8,74.5,108.4z M70.5,108.4c0,1,0.5,1.9,1.5,1.9c1,0,1.5-0.9,1.5-1.9c0-0.9-0.4-1.9-1.5-1.9
		C70.9,106.5,70.5,107.6,70.5,108.4z"/>
	<path class="st1" d="M75.6,107.3c0-0.5,0-0.9,0-1.3h0.8l0,0.8h0c0.2-0.5,0.8-0.9,1.6-0.9c0.7,0,1.7,0.4,1.7,2.1v3h-0.9v-2.8
		c0-0.8-0.3-1.5-1.1-1.5c-0.6,0-1,0.4-1.2,0.9c0,0.1-0.1,0.3-0.1,0.4v3h-0.9V107.3z"/>
	<path class="st1" d="M83.5,104.1c0.4-0.1,1-0.1,1.7-0.1c0.9,0,1.5,0.2,1.9,0.6c0.4,0.3,0.6,0.8,0.6,1.5c0,0.6-0.2,1.1-0.5,1.5
		c-0.5,0.5-1.2,0.8-2.1,0.8c-0.3,0-0.6,0-0.7-0.1v2.7h-0.9V104.1z M84.4,107.4c0.1,0,0.4,0.1,0.7,0.1c1.1,0,1.7-0.5,1.7-1.5
		c0-0.9-0.6-1.4-1.6-1.4c-0.4,0-0.7,0-0.8,0.1V107.4z"/>
	<path class="st1" d="M88.9,107.5c0-0.6,0-1.1,0-1.5h0.8l0,1h0c0.2-0.7,0.8-1.1,1.4-1.1c0.1,0,0.2,0,0.2,0v0.8c-0.1,0-0.2,0-0.3,0
		c-0.6,0-1.1,0.5-1.2,1.2c0,0.1,0,0.3,0,0.4v2.7h-0.9V107.5z"/>
	<path class="st1" d="M96.8,108.4c0,1.8-1.3,2.6-2.5,2.6c-1.3,0-2.4-1-2.4-2.6c0-1.7,1.1-2.6,2.5-2.6
		C95.8,105.8,96.8,106.8,96.8,108.4z M92.8,108.4c0,1,0.5,1.9,1.5,1.9c1,0,1.5-0.9,1.5-1.9c0-0.9-0.4-1.9-1.5-1.9
		C93.2,106.5,92.8,107.6,92.8,108.4z"/>
</g>
</svg>
